<svg xmlns="http://www.w3.org/2000/svg" width="37" height="33" viewBox="0 0 37 33">
    <g fill="none" fill-rule="evenodd">
        <path fill="#0b75cb" stroke="#222" stroke-width=".5" d="M14.885 29.286c-1.087-.935-2-1.925-2.934-2.755-1.09-.964-2.143-1.79-3.055-2.619-1.078-1.017-1.894-2.073-2.715-2.959-1.026-1.113-2.02-2.003-2.693-2.985a13.256 13.256 0 0 1-1.615-3.65C1.436 13.054 1 11.819 1 10.417a9.808 9.808 0 0 1 .799-3.596 9.699 9.699 0 0 1 1.89-3.156 9.41 9.41 0 0 1 3.055-2.038 9.633 9.633 0 0 1 8.145.615c1.403.823 3.496 3.134 3.693 3.134.196 0 2.275-2.329 3.675-3.16a9 9 0 0 1 4.635-1.21 8.73 8.73 0 0 1 3.536.738 9.074 9.074 0 0 1 2.985 2.043 9.515 9.515 0 0 1 2.034 3.025 9.878 9.878 0 0 1 .799 3.61 12.658 12.658 0 0 1-.716 3.972 14.072 14.072 0 0 1-1.903 3.518 27.695 27.695 0 0 1-2.518 3.112c-.821.873-1.842 1.746-2.916 2.759-.895.846-1.798 1.833-2.885 2.797-.934.825-1.916 1.746-3.003 2.672-.965.82-1.951 1.746-3.056 2.64-.305.254-.253.415-.646.476-.392.061-2.754-2.26-3.718-3.081z"/>
        <path stroke="#222" stroke-linecap="round" stroke-width=".5" d="M23.452 5.746a5.732 5.732 0 0 1 2.269-.784 6.026 6.026 0 0 1 2.408.158 6.414 6.414 0 0 1 2.207 1.05 6.729 6.729 0 0 1 1.707 1.81c.456.79.783 1.647.97 2.538"/>
        <path fill="#FFF" d="M13.513 18.453c-.058.006-.12 0-.178.006-.058.006-.115.017-.173.023-.057.006-.114.026-.171.031-.058.006-.117 0-.175.005-.058.005-.115.012-.173.018 0-.06-.014-.12-.014-.179s.023-.118.023-.178-.022-.119-.022-.178v-.178c0-.06.024-.12.024-.179 0-.06-.004-.119-.004-.178 0-.06-.022-.119-.022-.178 0-.06.006-.12.006-.179 0-.06.007-.119.007-.178 0-.06-.007-.119-.007-.178 0-.06.008-.12.008-.179 0-.06.014-.119.014-.178l-.002-.178c0-.06-.022-.12-.022-.179v-.178c0-.06.011-.119.011-.178l-.002-.178c0-.06.004-.12.004-.179-.004 0-.003.002-.007.001-.011.056-.038.108-.049.164l-.03.167c-.012.056-.004.115-.016.17-.011.056-.029.11-.04.166-.01.056-.03.11-.04.165-.012.056-.025.111-.036.167-.011.056-.004.115-.015.17-.012.061-.043.117-.055.178-.012.06-.007.123-.02.184-.011.06-.027.12-.039.18s-.02.12-.032.181c-.012.06-.032.119-.044.18-.012.06-.012.122-.024.182s-.044.117-.056.177l-.037.18c-.011.06-.014.123-.025.183l-.036.18c-.01.054-.028.106-.034.161-.005.053.007.112 0 .168l-.2.028c-.067.01-.13.021-.196.03-.067.01-.13.01-.196.02.007-.066.01-.133.007-.2a1.96 1.96 0 0 0-.03-.2c-.012-.065-.028-.13-.043-.196-.015-.065-.045-.127-.058-.193-.012-.058-.018-.118-.03-.177-.012-.058-.027-.116-.038-.175-.012-.058-.014-.119-.025-.177-.012-.059-.027-.117-.039-.175-.012-.059-.013-.12-.025-.178-.012-.058-.049-.112-.06-.17-.013-.059.003-.123-.009-.182-.011-.059-.024-.117-.036-.175l-.034-.176c-.012-.058-.051-.111-.063-.17-.012-.058 0-.122-.012-.18-.011-.058-.032-.115-.043-.174-.012-.058-.013-.12-.025-.178-.012-.058-.04-.113-.052-.172-.005-.026 0-.05-.017-.074 0 .06-.017.118-.017.178s.024.121.024.182c0 .06-.027.12-.027.181 0 .06.004.121.004.182 0 .06.023.12.023.181 0 .06-.026.121-.026.182 0 .06.013.121.013.181 0 .061-.005.122-.005.182s-.006.121-.006.182c0 .06-.003.12-.003.181 0 .06.027.121.027.182 0 .06-.023.12-.023.181v.182l-.002.182c0 .06.003.12.003.181 0 .06.006.121.006.182 0 .06-.003.12-.003.181v.358c-.056.01-.107.012-.163.022-.056.01-.11.034-.165.044l-.167.032c-.055.01-.113.01-.169.02-.056.01-.113.028-.169.038a.663.663 0 0 0 .07-.184c.017-.063.028-.128.033-.193.002-.065.005-.131.005-.197 0-.06-.021-.122-.021-.183s.008-.123.008-.184.01-.122.01-.183-.02-.123-.02-.184.02-.122.02-.183c0-.062.005-.123.005-.184l-.003-.183c0-.061-.01-.123-.01-.184s-.004-.122-.004-.183c0-.062.009-.123.009-.184s-.005-.122-.005-.183.008-.123.008-.184l-.002-.183c0-.062-.007-.123-.007-.184s.006-.122.006-.183-.01-.123-.01-.184v-.183c0-.062.015-.123.015-.184s-.02-.122-.02-.183c0-.062.019-.123.019-.184s.005-.122.005-.183c0-.062-.004-.123-.004-.184v-.183c0-.062-.01-.123-.01-.184s.006-.122.006-.184l.002-.183c0-.061-.018-.122-.018-.183 0-.053.004-.106.002-.159-.003-.052.008-.107-.006-.159-.014-.048-.048-.099-.08-.146.062 0 .13.005.192.005s.124.009.186.009c.061 0 .123-.022.185-.022l.185-.002.185.002c.062 0 .12.017.182.017.012.06.013.12.024.18l.039.18c.012.06.027.12.04.18.011.061.043.118.054.178.012.06.017.122.028.183.012.06.02.12.032.181.012.06.014.123.026.184l.034.181c.012.06.036.119.048.179.012.06.033.119.045.18.012.06.005.124.017.184s.019.122.03.182c.012.06.038.118.05.178l.037.182c.012.06.032.119.044.18.012.06-.002.125.01.186l.039.18.038.18c.012.061.027.122.04.182a.13.13 0 0 1 .02.002c.011-.061.009-.124.02-.184.012-.06.047-.117.058-.177.012-.06.02-.121.032-.182.012-.06.004-.125.015-.185.012-.06.028-.12.04-.18.01-.06.029-.12.04-.18.012-.061.04-.118.051-.179.012-.06.01-.123.021-.184l.034-.181c.011-.06.025-.121.037-.182.011-.06.028-.12.04-.18.011-.06.032-.12.043-.18l.035-.181.036-.182c.012-.06.015-.122.028-.183.012-.06.011-.123.023-.183.011-.06.036-.118.048-.179.012-.06.025-.12.036-.181.012-.061.006-.134.018-.194.06 0 .13.012.19.012s.12-.003.181-.003.121-.01.182-.01c.06 0 .121.025.182.025.06 0 .12-.025.181-.025.06 0 .11.018.17.018a.536.536 0 0 0-.062.15c-.016.055-.01.114-.014.171-.004.058-.015.114-.015.172 0 .057.016.119.016.179s-.015.119-.015.178l-.002.18c0 .059.003.118.003.178s.005.12.005.179v.179c0 .06-.005.119-.005.178 0 .06-.005.12-.005.18 0 .059.015.118.015.178l.002.179c0 .06-.015.12-.015.179 0 .06.003.119.003.179s-.005.119-.005.178l-.002.18c0 .059.007.118.007.178s.004.12.004.179c0 .06-.014.12-.014.179l.003.178c0 .06.007.12.007.18 0 .059-.01.119-.01.178 0 .06.018.12.018.179 0 .06-.017.12-.017.179 0 .06.026.119.026.179s-.009.119-.009.178c0 .06-.008.12-.008.18 0 .055.011.111.015.167.003.056.012.111.026.165a.597.597 0 0 0 .066.155zm6.161-5.477c.055 0 .119-.009.175-.009.056 0 .11.019.166.019l.168.003c.056 0 .11-.022.166-.022.056 0 .111.026.166.026.056 0 .111-.01.167-.01a.543.543 0 0 0-.06.143.772.772 0 0 0-.034.152c-.005.052-.017.105-.017.157 0 .064.012.127.012.191s-.006.127-.006.19c0 .065.003.128.003.192 0 .063-.006.127-.006.19 0 .064.012.128.012.191 0 .064.007.127.007.191s-.021.127-.021.19c0 .065.008.128.008.192l.002.19c0 .028.004.052.004.085.059 0 .115.016.173.016l.175.002c.058 0 .117-.016.175-.016.058 0 .116.003.175.003.058 0 .113-.013.171-.013.002-.022.02-.034.02-.055 0-.058-.02-.116-.02-.174 0-.058.005-.116.005-.174 0-.058.007-.116.007-.174 0-.058.008-.116.008-.174 0-.058-.007-.116-.007-.174 0-.058-.016-.116-.016-.174 0-.059.02-.116.02-.174 0-.059.004-.116.004-.174 0-.058-.01-.116-.01-.174 0-.058-.007-.116-.007-.174 0-.053 0-.104-.005-.156a.776.776 0 0 0-.025-.153.535.535 0 0 0-.059-.137c.057 0 .108-.013.165-.013l.17.002c.057 0 .114.013.171.013.057 0 .114-.008.17-.008.058 0 .114.003.171.003l.174-.003a.559.559 0 0 0-.057.145.75.75 0 0 0-.033.15c-.004.05.005.101.005.153v.183c0 .061-.016.122-.016.183s.004.122.005.183c0 .061-.007.122-.007.183v.184l.002.183c0 .06.016.122.016.183 0 .06-.018.122-.018.183s-.005.122-.005.183.017.122.017.183-.012.122-.012.183-.003.122-.003.184c0 .06.019.122.019.183 0 .06-.018.122-.018.183 0 .06-.006.122-.006.183l.002.183c0 .061.023.122.023.183l-.001.183c0 .061-.017.122-.017.184v.183c0 .06.01.122.01.183 0 .06-.016.122-.016.183 0 .06.016.122.016.183s-.014.122-.014.183c0 .076.022.147.035.22a.64.64 0 0 0 .085.212c-.057-.002-.128-.022-.185-.024-.057-.003-.114.008-.171.006-.057-.002-.114.007-.171.005-.057-.003-.114-.001-.171-.003-.057-.003-.113-.023-.17-.025-.057-.003-.126.005-.183.003.03-.057.076-.117.09-.176.015-.06.002-.126.006-.188.003-.061.013-.123.013-.185 0-.059-.016-.117-.016-.175 0-.058.015-.117.015-.175 0-.058.004-.116.004-.175 0-.058-.007-.116-.007-.174 0-.059.004-.117.004-.175 0-.059-.016-.117-.016-.175 0-.058.007-.117.007-.175v-.175c0-.058.012-.116.012-.175 0-.027-.003-.055-.003-.088-.059 0-.118-.007-.176-.007h-.176c-.058 0-.117.012-.176.012-.058 0-.117-.005-.176-.005-.058 0-.112.01-.171.01 0 .027-.015.047-.015.075 0 .062.007.123.007.185 0 .061.01.122.01.184 0 .06-.01.122-.01.184l-.002.184c0 .061-.004.122-.004.184 0 .061.02.123.02.184s-.008.123-.008.184c0 .062-.006.123-.006.184s.011.123.011.184c0 .076-.015.153-.003.227a.655.655 0 0 0 .074.213c-.056 0-.11.015-.166.015-.057 0-.112-.022-.168-.022-.057 0-.113.011-.169.011-.056 0-.112.011-.168.011-.057 0-.113-.023-.169-.023-.056 0-.121.012-.177.012a.772.772 0 0 0 .06-.171c.015-.058.036-.113.04-.17.004-.059 0-.118 0-.177s-.004-.116-.004-.174c0-.058.006-.12.006-.18s.006-.12.006-.18l.003-.18c0-.06-.004-.12-.004-.18s-.014-.12-.013-.181v-.18c0-.06.022-.12.022-.18s-.026-.12-.026-.18.014-.12.014-.18-.01-.12-.01-.18.019-.12.019-.181c0-.06-.008-.12-.008-.18s-.013-.12-.013-.18.012-.12.012-.18-.011-.12-.011-.18.015-.12.015-.18c0-.061.009-.121.009-.181s-.025-.12-.025-.18.013-.12.013-.18-.005-.12-.005-.18l-.002-.18c0-.06-.01-.121-.01-.182 0-.073.013-.146.004-.218a2.665 2.665 0 0 0-.026-.169c-.011-.056-.025-.117-.035-.174zm-1.537 3.133c-.064 0-.127-.024-.19-.02a1.064 1.064 0 0 0-.192.022.607.607 0 0 0-.167.07c0-.063-.007-.113-.007-.177l-.003-.19c0-.064-.01-.127-.01-.19 0-.064.024-.117.024-.181.064 0 .118-.018.182-.018.065 0 .129.019.193.019.065 0 .129-.026.193-.026s.129.017.193.017.128-.014.193-.014c.064 0 .128.026.193.026.064 0 .13-.019.195-.019 0 .031.01.063.01.09 0 .063-.02.125-.02.187s.005.125.005.187.013.124.013.187c0 .062-.003.124-.003.187 0 .062-.022.124-.022.186s.02.125.02.187c0 .063-.013.125-.013.187l-.003.187c0 .062.025.125.025.187s-.026.124-.026.187c0 .052.02.104.02.156-.002.052-.002.104 0 .155 0 .052-.018.105-.014.157.003.052.036.103.05.156.013.053.01.1.022.153-.066-.001-.127.015-.195.014-.067 0-.132-.025-.2-.036-.066-.01-.129-.02-.191-.05-.058-.027-.116-.05-.168-.1a.98.98 0 0 1-.166.104c-.06.03-.131.028-.196.045a1.152 1.152 0 0 1-.195.035c-.06.006-.118.018-.176.019-.058 0-.117-.012-.175-.018a1.327 1.327 0 0 1-.341-.078 1.052 1.052 0 0 1-.155-.08c-.05-.03-.105-.054-.15-.094a1.206 1.206 0 0 1-.127-.124 1.167 1.167 0 0 1-.097-.135c-.03-.047-.042-.102-.064-.151-.023-.05-.064-.094-.079-.147-.014-.053-.002-.112-.01-.167a1.264 1.264 0 0 1-.008-.163l-.001-.18c0-.06-.014-.12-.014-.18s.008-.12.007-.18c0-.06.002-.12.001-.18 0-.06-.027-.12-.027-.18s.011-.12.01-.18c0-.06.007-.12.007-.18s-.007-.12-.007-.18-.005-.12-.005-.18.023-.12.023-.18-.016-.12-.016-.18.009-.12.009-.18c0-.061-.011-.12-.011-.181 0-.06.014-.12.014-.18s-.006-.12-.006-.18-.018-.12-.018-.18c0-.048.032-.094.036-.142.005-.048-.002-.097.007-.143.013-.062.03-.123.05-.183a1.213 1.213 0 0 1 .188-.324c.039-.05.074-.102.121-.144a1.122 1.122 0 0 1 .317-.203 1.5 1.5 0 0 1 .176-.064c.055-.016.11-.021.165-.031.055-.01.11-.015.165-.018.056-.006.111-.01.167-.01.056.003.111.008.166.017.055.007.114-.004.169.01.054.012.106.036.158.055.053.019.113.03.162.056.051.026.096.065.14.098a.959.959 0 0 1 .123.116c.04.041.08.081.112.129.03.047.048.102.07.154.024.053.06.099.075.154.015.053.005.114.014.171.009.055.03.108.033.164.004.055-.01.111-.009.166.002.055.028.11.03.165.003.064-.006.129.01.19.014.062.04.12.074.174l-.172-.001c-.058 0-.117.016-.175.016-.058 0-.117-.007-.175-.007l-.174-.003c-.058 0-.112-.009-.17-.009 0-.061-.01-.118-.01-.179 0-.06.021-.122.022-.183 0-.061-.003-.123-.004-.184 0-.06-.012-.122-.015-.183a.391.391 0 0 0-.038-.173.423.423 0 0 0-.125-.125c-.047-.035-.104-.042-.163-.053-.059-.01-.116-.035-.177-.035a.93.93 0 0 0-.18.018.433.433 0 0 0-.185.081.457.457 0 0 0-.12.163.509.509 0 0 0-.037.196c-.003.068-.006.136-.006.204 0 .06.014.12.014.18l-.002.179v.18c0 .059-.014.119-.014.179s.008.12.008.18c0 .059.007.119.007.179s-.015.12-.015.18.009.119.009.179.01.12.01.18c0 .059-.024.119-.024.179s.025.12.025.18-.011.119-.011.179-.018.12-.017.18c0 .06.016.119.016.179s-.008.12-.008.18c0 .055-.007.113.002.167a.545.545 0 0 0 .07.19c.035.058.1.087.157.121.054.032.109.072.18.082.048.006.098-.012.147-.012a.855.855 0 0 0 .144-.013.437.437 0 0 0 .175-.074c.054-.038.115-.073.146-.132a.47.47 0 0 0 .047-.195c.003-.065-.01-.13-.008-.194.001-.065-.005-.13-.005-.194s.004-.129.003-.193c0-.065.004-.13.004-.194s.01-.129.01-.193c0-.007-.015 0-.019-.007zm10.6-3.122c-.026.06-.053.117-.08.174a1.455 1.455 0 0 0-.066.18c-.018.056-.046.11-.063.166-.018.057-.03.115-.047.172-.018.056-.047.11-.065.166-.018.057-.026.116-.044.173l-.054.17c-.017.056-.027.115-.045.171-.018.057-.04.112-.057.169-.018.056-.033.114-.05.17-.018.057-.042.112-.06.168-.017.057-.037.112-.055.169-.018.057-.032.114-.05.17-.017.057-.045.111-.062.167-.016.056-.032.114-.05.171-.017.057-.02.118-.037.174-.017.057-.041.112-.059.168-.017.057-.049.11-.066.166-.011.035-.007.075-.008.113 0 .059.002.117.001.176 0 .06-.015.118-.015.177 0 .058.003.117.003.176 0 .059-.005.117-.005.176 0 .059.024.118.024.176 0 .06-.013.118-.013.177 0 .058.004.117.004.176 0 .059-.003.118-.003.176 0 .06-.01.118-.01.177 0 .058.013.117.014.176 0 .059-.014.118-.013.176l.003.177c0 .058.02.117.02.176-.002.064 0 .127.007.19.01.064.01.117.017.181-.062-.01-.116-.003-.18-.013-.063-.01-.126-.015-.19-.026l-.188-.032-.19-.028c-.062-.01-.127-.032-.19-.042a.634.634 0 0 0 .087-.204c.012-.07-.001-.146-.001-.219 0-.059.015-.117.015-.176 0-.058-.012-.117-.012-.176l-.002-.176c0-.058.022-.117.022-.175 0-.06-.028-.119-.028-.177 0-.058.024-.117.024-.176 0-.058-.004-.117-.004-.176 0-.058-.02-.117-.02-.175l.001-.176v-.176c0-.059.021-.117.021-.176 0-.059-.013-.117-.013-.176 0-.063-.033-.124-.052-.186-.017-.059-.013-.124-.03-.183-.018-.058-.049-.113-.066-.172-.017-.058-.043-.114-.06-.173-.018-.059-.014-.124-.03-.183-.018-.058-.031-.118-.048-.177s-.059-.11-.076-.17c-.017-.058-.012-.123-.03-.182s-.043-.115-.06-.173c-.018-.06-.028-.12-.046-.179-.018-.058-.045-.114-.062-.173a15.479 15.479 0 0 0-.051-.176c-.018-.059-.039-.116-.056-.175-.018-.058-.022-.121-.04-.18l-.052-.176-.051-.176c-.018-.059-.054-.108-.079-.162l-.072-.165a.142.142 0 0 1 .047-.014c.063 0 .126.023.19.023l.188.002c.063 0 .126-.026.19-.027.062 0 .126.024.189.023.056 0 .072.006.086.06.015.061.036.12.052.18.016.061.044.118.06.179.017.06.006.127.022.188.016.06.054.114.07.175.016.06.02.124.035.184.016.06.02.124.035.185.016.06.035.12.05.18.017.06.03.12.045.181.016.061.033.121.048.182l.047.182c.017.06.038.108.054.169.025-.096.058-.162.077-.238.015-.058.033-.115.048-.174.015-.058.015-.12.03-.178.015-.058.046-.113.06-.17.016-.06.018-.12.033-.179l.045-.175c.015-.058.034-.115.049-.173.014-.059.024-.118.039-.176.014-.059.045-.113.06-.171.015-.059.017-.12.032-.178.014-.059.045-.113.06-.171.015-.058.026-.07.08-.07.065 0 .13-.005.194-.005l.193-.001c.064 0 .13.01.193.01.064 0 .128-.007.192-.007zm-4.06 5.43c-.063-.004-.124.007-.186.002l-.188-.017-.187-.017c-.063-.005-.124-.027-.186-.032-.063-.005-.136-.002-.199-.007a.722.722 0 0 0 .074-.203c.013-.068.02-.137.02-.206.002-.07.017-.14.017-.21 0-.06.005-.12.005-.179l-.002-.18c0-.059-.004-.118-.004-.178s-.005-.12-.005-.18c0-.059-.005-.119-.005-.178 0-.06-.007-.12-.007-.18 0-.059.013-.119.013-.179s-.013-.119-.013-.179l-.002-.179c0-.06.013-.12.013-.179l.002-.179c0-.06.008-.12.008-.179l.003-.18c0-.059-.01-.119-.01-.178 0-.06.005-.12.005-.18 0-.059-.021-.119-.021-.179s.024-.119.024-.179v-.179c0-.06-.016-.12-.016-.179 0-.06.003-.12.003-.179 0-.06-.004-.12-.004-.179 0-.06.018-.12.018-.18 0-.03-.01-.06-.01-.099a3.956 3.956 0 0 1-.174.004c-.058-.001-.117.002-.174.003-.058 0-.116-.003-.174.002-.058.006-.111.03-.168.043-.057.015-.11.013-.163.038 0-.067.01-.128.01-.195s-.027-.134-.027-.2c0-.068.015-.134.015-.201 0-.068-.006-.137-.006-.204.059 0 .121-.01.18-.01h.175c.058 0 .117.005.175.005.059 0 .117.02.176.02.058 0 .117-.026.175-.026.059 0 .117.007.176.007l.175.002c.059 0 .117.018.176.018.059 0 .117-.003.176-.003l.175-.003.176-.001c.058 0 .117-.017.175-.017h.176c.058 0 .111.016.17.016 0 .067.01.13.01.196 0 .067-.015.135-.015.202s.01.134.01.202c0 .067.008.144.008.211a.796.796 0 0 0-.17-.064c-.056-.015-.109-.038-.166-.043-.058-.005-.114-.015-.172-.015-.057 0-.114.019-.172.019-.057 0-.117-.01-.174-.014-.002.034.011.066.011.093 0 .06-.003.12-.003.181 0 .06-.015.121-.015.182v.181c0 .061.009.121.009.182 0 .06-.012.121-.012.182 0 .06.01.12.01.181 0 .06.008.121.008.182 0 .06.005.12.005.181 0 .06-.021.121-.021.182v.181c0 .061.01.122.01.182s-.004.121-.004.182c0 .06.015.12.015.181 0 .06-.022.121-.022.182 0 .06.005.12.005.181 0 .06-.009.121-.009.182 0 .06.019.121.019.182 0 .06.007.12.007.181 0 .06-.012.121-.012.182 0 .06.003.12.003.181l.001.182c0 .06.005.12.005.181 0 .06-.007.121-.006.182 0 .053-.01.107-.006.16a.871.871 0 0 0 .02.16c.013.056.04.101.068.15zm-10.286-.05a.677.677 0 0 0 .091-.303c.005-.053.007-.106.006-.16 0-.06.016-.122.016-.183s-.011-.123-.011-.184c0-.06-.015-.122-.015-.183l.002-.184v-.184-.184c0-.06.015-.122.015-.183 0-.062-.02-.123-.02-.184s.018-.122.018-.184l-.002-.183c0-.062.014-.123.014-.184s-.015-.123-.015-.184c0-.06-.007-.122-.007-.183 0-.062.017-.123.017-.184l-.002-.184c0-.061-.018-.122-.018-.184 0-.061.017-.122.017-.183 0-.062-.004-.123-.004-.184l-.003-.184.002-.184c0-.06-.005-.122-.005-.183s-.01-.123-.01-.184.013-.122.013-.184c0-.06-.005-.122-.005-.183 0-.062 0-.118-.004-.177a.955.955 0 0 0-.021-.175c-.014-.055-.024-.105-.054-.158.056 0 .102-.016.159-.016.056 0 .113.021.17.021.056 0 .113.003.17.003.057 0 .113-.02.17-.02.057 0 .113.019.17.019.056 0 .113-.012.17-.012-.028.047-.062.09-.076.14-.014.05.005.108 0 .16-.005.052-.01.103-.01.156 0 .06-.005.122-.005.183 0 .062-.01.123-.01.184 0 .06.012.122.012.183s-.015.122-.015.184c0 .06-.005.122-.005.183s.018.122.018.183-.006.123-.006.184c0 .06.011.122.011.183s-.02.122-.02.184c0 .06.011.122.011.183s.01.122.01.183-.014.123-.014.184c0 .06.015.122.015.183s-.016.122-.016.183c0 .06.007.122.007.183s.012.123.012.184c0 .06-.01.122-.01.183s-.01.122-.01.183c0 .062-.008.123-.008.184s.021.122.021.183l-.003.184c0 .06.006.122.006.183s-.004.122-.004.183c0 .062-.005.123-.005.184a1.55 1.55 0 0 0 0 .157c.006.052.033.098.048.149.015.048.029.104.057.151-.057.004-.122-.007-.18-.003-.056.004-.112.023-.17.028l-.17.012c-.058.004-.115.004-.172.009-.057.004-.114.01-.17.015l-.173.01zm4.759-7.928c.017-.066.022-.132.04-.192.016-.055.053-.098.087-.14a.444.444 0 0 1 .127-.1.426.426 0 0 1 .149-.063.352.352 0 0 1 .159.02c.053.015.11.038.146.09.033.048.045.11.051.168.007.06.01.128-.025.176a.536.536 0 0 1-.38.196c-.065.002-.128.013-.195.013-.014.054-.03.103-.043.156a61.27 61.27 0 0 0-.04.16l-.042.163c.053-.016.107-.028.161-.038.063-.01.123-.025.175-.01.059.016.097.066.136.108.04.041.076.085.09.144a.382.382 0 0 1-.004.173c-.016.063-.04.124-.056.187l-.048.189c-.016.063-.024.129-.04.192.007.006.011.023.015.024.059.015.122.037.106.108-.013.054-.09.073-.16.053a.184.184 0 0 1-.111-.093c-.022-.042-.021-.088-.008-.143.014-.059.012-.121.027-.18.015-.06.026-.118.04-.177.016-.058.046-.113.061-.171.018-.069.022-.14-.034-.194-.06-.058-.139-.065-.21-.04a.38.38 0 0 0-.148.106.348.348 0 0 0-.088.156c-.014.054-.013.112-.027.166-.014.054-.053.102-.067.156-.013.054-.024.11-.038.164-.013.054-.006.114-.02.168-.006.024-.025.059-.042.067-.033.015-.097.04-.118.026-.026-.02-.05-.09-.043-.123.011-.056.047-.106.06-.162.013-.055.013-.114.028-.169.014-.055.047-.106.06-.161l.046-.185c.015-.061.012-.127.028-.189.015-.061.047-.119.063-.18.015-.061.008-.129.023-.19.016-.062.035-.122.05-.184.006-.021.023-.054.029-.085-.07 0-.144.013-.212.013s-.138-.012-.206-.01c-.017 0-.039.05-.045.073-.014.054-.044.104-.058.159-.013.054-.022.11-.036.165-.014.054-.006.114-.02.168-.013.055-.034.108-.048.162-.013.055-.03.108-.043.163-.013.054-.04.106-.054.16-.016.065-.036.128-.052.193-.017.065-.023.132-.04.197.008.005.017.01.026.013.056.016.087.045.07.112-.013.055-.06.09-.128.073-.06-.016-.095-.063-.118-.11-.021-.042-.015-.09 0-.152.013-.055.017-.112.03-.167.015-.055.025-.11.039-.164.014-.054.024-.11.037-.164.014-.055.036-.104.05-.158.012-.053.017-.108.03-.161.014-.053.03-.106.043-.16.014-.052.023-.107.036-.16.013-.053.015-.109.03-.162.004-.022.016-.028.02-.052-.07 0-.134-.015-.203-.016-.069-.001-.138-.006-.207-.006-.07 0-.14-.006-.208-.002-.054.004-.105.042-.152.076a.447.447 0 0 0-.108.124.372.372 0 0 0-.061.15c-.01.067.001.119.033.158a.194.194 0 0 0 .15.068c.055.002.1-.023.145-.043.046-.02.101-.03.14-.066.016-.013.027-.03.042-.043.04-.036.084-.053.114-.01.02.027.03.091.014.119a.407.407 0 0 1-.118.11c-.043.03-.088.065-.14.083a.636.636 0 0 1-.159.035c-.056.005-.109-.021-.157-.037a.358.358 0 0 1-.167-.096.373.373 0 0 1-.076-.178.415.415 0 0 1 .008-.193.562.562 0 0 1 .204-.312c.05-.039.113-.06.172-.081a.55.55 0 0 1 .184-.038c.058 0 .117.007.175.007.059 0 .117-.014.175-.014h.351c.058 0 .116-.003.175-.003.058 0 .117.024.175.024.059 0 .12-.007.178-.007zm.177 0c.06.003.12 0 .18-.008.057-.008.115-.02.162-.068.06-.064.09-.16.055-.21-.035-.05-.138-.058-.216-.023a.286.286 0 0 0-.144.12c-.026.052-.03.123-.037.188zm.57 1.347c0-.064.03-.124.046-.185s.03-.124.061-.18c.031-.055.079-.098.122-.144.043-.046.082-.099.135-.133.054-.034.117-.047.178-.065.06-.02.122-.03.184-.029.06.003.117.004.165.027.05.026.093.065.123.113.03.047.03.1.025.16-.005.053-.004.117-.034.161a.478.478 0 0 1-.157.132.646.646 0 0 1-.192.06.46.46 0 0 1-.196-.01c-.072-.015-.104-.042-.088-.095.02-.062.055-.073.118-.06a.355.355 0 0 0 .184-.013.482.482 0 0 0 .168-.083c.08-.068.046-.165-.054-.189a.414.414 0 0 0-.208.001.481.481 0 0 0-.163.09.573.573 0 0 0-.216.303.532.532 0 0 0-.007.188.291.291 0 0 0 .042.145c.03.044.076.074.128.083a.281.281 0 0 0 .154-.026c.064-.03.11-.097.165-.143.045-.037.088-.035.132.009.045.043.052.093.005.128l-.123.093a.65.65 0 0 1-.136.072.46.46 0 0 1-.191.037.383.383 0 0 1-.315-.205.49.49 0 0 1-.04-.19c-.002-.017-.016-.034-.016-.052z"/>
    </g>
</svg>
